{"title":"The Crow(1994)MPEG-4[DaScubaDude]","uid":14642236,"size":1014810948,"categoryP":"video","categoryS":"movies","magnet":"?xt=urn:btih:ddfa99bc1f6ca20a18b552997bb2583dbb7af190&amp;dn=The+Crow%281994%29MPEG-4%5BDaScubaDude%5D&amp;tr=udp%3A%2F%2Ftracker.leechers-paradise.org%3A6969&amp;tr=udp%3A%2F%2Fzer0day.ch%3A1337&amp;tr=udp%3A%2F%2Fopen.demonii.com%3A1337&amp;tr=udp%3A%2F%2Ftracker.coppersurfer.tk%3A6969&amp;tr=udp%3A%2F%2Fexodus.desync.com%3A6969","seeders":0,"leechers":1,"uploader":"dascuba","files":1,"time":1463539897,"description":"The Crow (1994)\r\nR | 1h 42min | Action, Drama, Fantasy | 13 May 1994 (USA)\r\nA man brutally murdered comes back to life as an undead avenger of his and his fiancée's murder.\r\nDirector: Alex Proyas\r\nWriters: James O'Barr (comic book series and comic strip), David J. Schow (screenplay) |\r\nStars: Brandon Lee, Michael Wincott, Rochelle Davis |\r\n\r\nGeneral\r\nComplete name                            : TheCrowTHE_CROW_Title1.mp4\r\nFormat                                   : MPEG-4\r\nFormat profile                           : Base Media\r\nCodec ID                                 : isom (isom/iso2/avc1/mp41)\r\nFile size                                : 968 MiB\r\nDuration                                 : 1h 41mn\r\nOverall bit rate                         : 1 333 Kbps\r\nMovie name                               : THE_CROW\r\nGenre                                    : Action\r\nWriting application                      : Lavf54.6.100\r\n\r\nVideo\r\nID                                       : 1\r\nFormat                                   : AVC\r\nFormat/Info                              : Advanced Video Codec\r\nFormat profile                           :   \r\nFormat settings, CABAC                   : No\r\nFormat settings, ReFrames                : 6 frames\r\nCodec ID                                 : avc1\r\nCodec ID/Info                            : Advanced Video Coding\r\nDuration                                 : 1h 41mn\r\nBit rate                                 : 1 198 Kbps\r\nWidth                                    : 720 pixels\r\nHeight                                   : 404 pixels\r\nDisplay aspect ratio                     : 16:9\r\nFrame rate mode                          : Constant\r\nFrame rate                               : 29.970 (30000/1001) fps\r\nColor space                              : YUV\r\nChroma subsampling                       : 4:2:0\r\nBit depth                                : 8 bits\r\nScan type                                : Progressive\r\nBits/(Pixel*Frame)                       : 0.137\r\nStream size                              : 870 MiB (90%)\r\n\r\nAudio\r\nID                                       : 2\r\nFormat                                   : AAC\r\nFormat/Info                              : Advanced Audio Codec\r\nFormat profile                           : LC\r\nCodec ID                                 : 40\r\nDuration                                 : 1h 41mn\r\nBit rate mode                            : Constant\r\nBit rate                                 : 128 Kbps\r\nChannel(s)                               : 2 channels\r\nChannel positions                        : Front: L R\r\nSampling rate                            : 44.1 KHz\r\nFrame rate                               : 43.066 fps (1024 spf)\r\nCompression mode                         : Lossy\r\nStream size                              : 92.9 MiB (10%)\r\nDefault                                  : Yes\r\nAlternate group                          : 1","torrent":{"xt":"urn:btih:ddfa99bc1f6ca20a18b552997bb2583dbb7af190","amp;dn":"The+Crow%281994%29MPEG-4%5BDaScubaDude%5D","amp;tr":["udp%3A%2F%2Ftracker.leechers-paradise.org%3A6969","udp%3A%2F%2Fzer0day.ch%3A1337","udp%3A%2F%2Fopen.demonii.com%3A1337","udp%3A%2F%2Ftracker.coppersurfer.tk%3A6969","udp%3A%2F%2Fexodus.desync.com%3A6969"],"infoHash":"ddfa99bc1f6ca20a18b552997bb2583dbb7af190","infoHashBuffer":{"type":"Buffer","data":[221,250,153,188,31,108,162,10,24,181,82,153,123,178,88,61,187,122,241,144]},"announce":[],"urlList":[]}}